<?xml version="1.0" encoding="UTF-8" standalone="no"?>
<!-- Created with Inkscape (http://www.inkscape.org/) -->

<svg
   xmlns:dc="http://purl.org/dc/elements/1.1/"
   xmlns:cc="http://creativecommons.org/ns#"
   xmlns:rdf="http://www.w3.org/1999/02/22-rdf-syntax-ns#"
   xmlns:svg="http://www.w3.org/2000/svg"
   xmlns="http://www.w3.org/2000/svg"
   xmlns:sodipodi="http://sodipodi.sourceforge.net/DTD/sodipodi-0.dtd"
   xmlns:inkscape="http://www.inkscape.org/namespaces/inkscape"
   width="512"
   height="512"
   id="svg3194"
   version="1.1"
   inkscape:version="0.48.4 r9939"
   sodipodi:docname="random_quotes_app.svg">
  <defs
     id="defs3196">
    <inkscape:perspective
       id="perspective8266"
       inkscape:persp3d-origin="372.04724 : 350.78739 : 1"
       inkscape:vp_z="744.09448 : 526.18109 : 1"
       inkscape:vp_y="0 : 1000 : 0"
       inkscape:vp_x="0 : 526.18109 : 1"
       sodipodi:type="inkscape:persp3d" />
    <inkscape:perspective
       id="perspective8266-4"
       inkscape:persp3d-origin="372.04724 : 350.78739 : 1"
       inkscape:vp_z="744.09448 : 526.18109 : 1"
       inkscape:vp_y="0 : 1000 : 0"
       inkscape:vp_x="0 : 526.18109 : 1"
       sodipodi:type="inkscape:persp3d" />
  </defs>
  <sodipodi:namedview
     id="base"
     pagecolor="#ffffff"
     bordercolor="#ffffff"
     borderopacity="0.0"
     inkscape:pageopacity="0.0"
     inkscape:pageshadow="0"
     inkscape:zoom="0.64"
     inkscape:cx="-39.593943"
     inkscape:cy="234.72933"
     inkscape:document-units="px"
     inkscape:current-layer="layer1"
     showgrid="false"
     showguides="true"
     inkscape:guide-bbox="true"
     inkscape:window-width="1920"
     inkscape:window-height="1055"
     inkscape:window-x="0"
     inkscape:window-y="0"
     inkscape:window-maximized="1">
    <inkscape:grid
       type="xygrid"
       id="grid3054"
       empspacing="5"
       visible="true"
       enabled="true"
       snapvisiblegridlinesonly="true" />
  </sodipodi:namedview>
  <metadata
     id="metadata3199">
    <rdf:RDF>
      <cc:Work
         rdf:about="">
        <dc:format>image/svg+xml</dc:format>
        <dc:type
           rdf:resource="http://purl.org/dc/dcmitype/StillImage" />
        <dc:title></dc:title>
      </cc:Work>
    </rdf:RDF>
  </metadata>
  <g
     inkscape:label="Layer 1"
     inkscape:groupmode="layer"
     id="layer1"
     transform="translate(0,-540.36218)">
    <g
       id="g3353"
       inkscape:export-filename="/media/camilo/data/workspaces/osohm/quote_display_apps/logo/random_quotes_app_icon_ldpi.png"
       inkscape:export-xdpi="6.328125"
       inkscape:export-ydpi="6.328125">
      <rect
         ry="49.902534"
         y="540.86121"
         x="0.49902859"
         height="511.00195"
         width="511.00195"
         id="rect3599"
         style="fill:#ffffff;fill-rule:evenodd;stroke:#e0e0e0;stroke-width:0.99805069;stroke-linejoin:round;stroke-miterlimit:4;stroke-opacity:1;stroke-dasharray:none" />
      <g
         inkscape:label="Livello 1"
         id="layer1-5"
         transform="matrix(11.179834,0,0,11.196281,-3573.7297,-2971.363)">
        <g
           transform="matrix(0.4333292,-0.3342014,0.3342014,0.4333292,-354.30886,610.51768)"
           id="g4607"
           style="display:inline">
          <g
             id="g4609"
             transform="matrix(0.9240741,0.7016441,-0.7016441,0.9240741,2048.8256,36.511712)">
            <path
               inkscape:connector-curvature="0"
               sodipodi:nodetypes="ccccccc"
               id="path4611"
               d="m -324.52189,633.42736 20.33005,-0.18581 10.91047,-15.62164 -10.30055,-16.3226 -19.31988,0.18912 -10.15163,15.24532 8.53154,16.69561 z"
               style="fill:#b3b3b3;fill-opacity:1;fill-rule:evenodd;stroke:#000000;stroke-width:1px;stroke-linecap:butt;stroke-linejoin:round;stroke-opacity:1" />
            <path
               inkscape:connector-curvature="0"
               id="path4613"
               d="m -308.34906,633.52768 c -0.88389,0 -14.01587,3.40927 -14.01587,3.40927 l -2.02031,-13.13199 16.03618,9.72272 z"
               style="fill:#000000;fill-opacity:1;fill-rule:evenodd;stroke:none" />
            <path
               inkscape:connector-curvature="0"
               sodipodi:nodetypes="ccccc"
               id="path4615"
               d="m -324.01681,633.42902 10.27996,-15.87625 20.45631,-0.1854 -11.16425,15.99962 -19.57202,0.062 z"
               style="fill:#ececec;fill-opacity:1;fill-rule:evenodd;stroke:#000000;stroke-width:1px;stroke-linecap:butt;stroke-linejoin:round;stroke-opacity:1" />
            <path
               inkscape:connector-curvature="0"
               id="path4617"
               d="m -293.53266,617.24027 -10.17469,-16.19592 -19.19487,0.56835 8.91283,15.93924 20.45673,-0.31167 z"
               style="fill:#ffffff;fill-opacity:1;fill-rule:evenodd;stroke:#000000;stroke-width:1px;stroke-linecap:butt;stroke-linejoin:round;stroke-opacity:1" />
            <path
               transform="matrix(0.09230916,-28.124847,5.8749679,0.01928236,-3818.105,-9067.9794)"
               d="m -344.33576,601.45532 c 0,0.27895 -0.0283,0.50508 -0.0631,0.50508 -0.0349,0 -0.0631,-0.22613 -0.0631,-0.50508 0,-0.27894 0.0283,-0.50507 0.0631,-0.50507 0.0349,0 0.0631,0.22613 0.0631,0.50507 z"
               sodipodi:ry="0.50507629"
               sodipodi:rx="0.063134536"
               sodipodi:cy="601.45532"
               sodipodi:cx="-344.3989"
               id="path4619"
               style="fill:#000000;fill-opacity:1;fill-rule:nonzero;stroke:none"
               sodipodi:type="arc" />
            <path
               transform="matrix(0.09230916,-28.124847,5.8749679,0.01928236,-3804.5077,-9075.1242)"
               d="m -344.33576,601.45532 c 0,0.27895 -0.0283,0.50508 -0.0631,0.50508 -0.0349,0 -0.0631,-0.22613 -0.0631,-0.50508 0,-0.27894 0.0283,-0.50507 0.0631,-0.50507 0.0349,0 0.0631,0.22613 0.0631,0.50507 z"
               sodipodi:ry="0.50507629"
               sodipodi:rx="0.063134536"
               sodipodi:cy="601.45532"
               sodipodi:cx="-344.3989"
               id="path4621"
               style="fill:#000000;fill-opacity:1;fill-rule:nonzero;stroke:none"
               sodipodi:type="arc" />
            <path
               transform="matrix(0.09230916,-28.124847,5.8749679,0.01928236,-3803.5893,-9085.6015)"
               d="m -344.33576,601.45532 c 0,0.27895 -0.0283,0.50508 -0.0631,0.50508 -0.0349,0 -0.0631,-0.22613 -0.0631,-0.50508 0,-0.27894 0.0283,-0.50507 0.0631,-0.50507 0.0349,0 0.0631,0.22613 0.0631,0.50507 z"
               sodipodi:ry="0.50507629"
               sodipodi:rx="0.063134536"
               sodipodi:cy="601.45532"
               sodipodi:cx="-344.3989"
               id="path4623"
               style="fill:#000000;fill-opacity:1;fill-rule:nonzero;stroke:none"
               sodipodi:type="arc" />
            <path
               transform="matrix(0.09230916,-28.124847,5.8749679,0.01928236,-3807.4825,-9092.0542)"
               d="m -344.33576,601.45532 c 0,0.27895 -0.0283,0.50508 -0.0631,0.50508 -0.0349,0 -0.0631,-0.22613 -0.0631,-0.50508 0,-0.27894 0.0283,-0.50507 0.0631,-0.50507 0.0349,0 0.0631,0.22613 0.0631,0.50507 z"
               sodipodi:ry="0.50507629"
               sodipodi:rx="0.063134536"
               sodipodi:cy="601.45532"
               sodipodi:cx="-344.3989"
               id="path4625"
               style="fill:#000000;fill-opacity:1;fill-rule:nonzero;stroke:none"
               sodipodi:type="arc" />
            <path
               transform="matrix(0.09230916,-28.124847,5.8749679,0.01928236,-3817.8369,-9091.9618)"
               d="m -344.33576,601.45532 c 0,0.27895 -0.0283,0.50508 -0.0631,0.50508 -0.0349,0 -0.0631,-0.22613 -0.0631,-0.50508 0,-0.27894 0.0283,-0.50507 0.0631,-0.50507 0.0349,0 0.0631,0.22613 0.0631,0.50507 z"
               sodipodi:ry="0.50507629"
               sodipodi:rx="0.063134536"
               sodipodi:cy="601.45532"
               sodipodi:cx="-344.3989"
               id="path4627"
               style="fill:#000000;fill-opacity:1;fill-rule:nonzero;stroke:none"
               sodipodi:type="arc" />
            <path
               transform="matrix(0.09230916,-28.124847,5.8749679,0.01928236,-3813.4399,-9085.1289)"
               d="m -344.33576,601.45532 c 0,0.27895 -0.0283,0.50508 -0.0631,0.50508 -0.0349,0 -0.0631,-0.22613 -0.0631,-0.50508 0,-0.27894 0.0283,-0.50507 0.0631,-0.50507 0.0349,0 0.0631,0.22613 0.0631,0.50507 z"
               sodipodi:ry="0.50507629"
               sodipodi:rx="0.063134536"
               sodipodi:cy="601.45532"
               sodipodi:cx="-344.3989"
               id="path4629"
               style="fill:#000000;fill-opacity:1;fill-rule:nonzero;stroke:none"
               sodipodi:type="arc" />
            <path
               transform="matrix(28.068897,-1.7755417,0.3708909,5.8632806,9119.7332,-3520.856)"
               d="m -344.33576,601.45532 c 0,0.27895 -0.0283,0.50508 -0.0631,0.50508 -0.0349,0 -0.0631,-0.22613 -0.0631,-0.50508 0,-0.27894 0.0283,-0.50507 0.0631,-0.50507 0.0349,0 0.0631,0.22613 0.0631,0.50507 z"
               sodipodi:ry="0.50507629"
               sodipodi:rx="0.063134536"
               sodipodi:cy="601.45532"
               sodipodi:cx="-344.3989"
               id="path4631"
               style="fill:#000000;fill-opacity:1;fill-rule:nonzero;stroke:none"
               sodipodi:type="arc" />
            <path
               inkscape:connector-curvature="0"
               id="path4633"
               d="m -335.37065,644.51309 -20.70812,-10.85914 18.43528,-13.38452 2.27284,24.24366 z"
               style="fill:#000000;fill-opacity:1;fill-rule:evenodd;stroke:#000000;stroke-width:1px;stroke-linecap:butt;stroke-linejoin:round;stroke-opacity:1" />
            <g
               transform="translate(-29.420693,24.622468)"
               id="g4635">
              <path
                 inkscape:connector-curvature="0"
                 style="fill:#ffffff;fill-opacity:1;fill-rule:evenodd;stroke:#000000;stroke-width:1px;stroke-linecap:butt;stroke-linejoin:round;stroke-opacity:1"
                 d="m -318.70313,590.72246 0.25254,20.32933 15.65736,10.85914 16.28871,-10.35407 -0.25253,-19.31916 -15.27856,-10.10153 -16.66752,8.58629 z"
                 id="path4637"
                 sodipodi:nodetypes="ccccccc" />
              <path
                 inkscape:connector-curvature="0"
                 style="fill:#cccccc;fill-opacity:1;fill-rule:evenodd;stroke:#000000;stroke-width:1px;stroke-linecap:butt;stroke-linejoin:round;stroke-opacity:1"
                 d="m -318.70313,591.22754 15.9099,10.2278 0.25254,20.45559 -16.03617,-11.11168 -0.12627,-19.57171 z"
                 id="path4639"
                 sodipodi:nodetypes="ccccc" />
              <path
                 inkscape:connector-curvature="0"
                 style="fill:#ececec;fill-opacity:1;fill-rule:evenodd;stroke:#000000;stroke-width:1px;stroke-linecap:butt;stroke-linejoin:round;stroke-opacity:1"
                 d="m -302.41442,621.65839 16.16244,-10.22779 -0.63134,-19.1929 -15.90991,8.9651 0.37881,20.45559 z"
                 id="path4641" />
              <path
                 sodipodi:type="arc"
                 style="fill:#000000;fill-opacity:1;fill-rule:nonzero;stroke:none"
                 id="path4643"
                 sodipodi:cx="-344.3989"
                 sodipodi:cy="601.45532"
                 sodipodi:rx="0.063134536"
                 sodipodi:ry="0.50507629"
                 d="m -344.33576,601.45532 c 0,0.27895 -0.0283,0.50508 -0.0631,0.50508 -0.0349,0 -0.0631,-0.22613 -0.0631,-0.50508 0,-0.27894 0.0283,-0.50507 0.0631,-0.50507 0.0349,0 0.0631,0.22613 0.0631,0.50507 z"
                 transform="matrix(28.124999,0,0,5.8749996,9371.1852,-2934.6829)" />
              <path
                 sodipodi:type="arc"
                 style="fill:#000000;fill-opacity:1;fill-rule:nonzero;stroke:none"
                 id="path4645"
                 sodipodi:cx="-344.3989"
                 sodipodi:cy="601.45532"
                 sodipodi:rx="0.063134536"
                 sodipodi:ry="0.50507629"
                 d="m -344.33576,601.45532 c 0,0.27895 -0.0283,0.50508 -0.0631,0.50508 -0.0349,0 -0.0631,-0.22613 -0.0631,-0.50508 0,-0.27894 0.0283,-0.50507 0.0631,-0.50507 0.0349,0 0.0631,0.22613 0.0631,0.50507 z"
                 transform="matrix(28.124999,0,0,5.8749996,9378.3746,-2921.1091)" />
              <path
                 sodipodi:type="arc"
                 style="fill:#000000;fill-opacity:1;fill-rule:nonzero;stroke:none"
                 id="path4647"
                 sodipodi:cx="-344.3989"
                 sodipodi:cy="601.45532"
                 sodipodi:rx="0.063134536"
                 sodipodi:ry="0.50507629"
                 d="m -344.33576,601.45532 c 0,0.27895 -0.0283,0.50508 -0.0631,0.50508 -0.0349,0 -0.0631,-0.22613 -0.0631,-0.50508 0,-0.27894 0.0283,-0.50507 0.0631,-0.50507 0.0349,0 0.0631,0.22613 0.0631,0.50507 z"
                 transform="matrix(28.124999,0,0,5.8749996,9388.8549,-2920.2251)" />
              <path
                 sodipodi:type="arc"
                 style="fill:#000000;fill-opacity:1;fill-rule:nonzero;stroke:none"
                 id="path4649"
                 sodipodi:cx="-344.3989"
                 sodipodi:cy="601.45532"
                 sodipodi:rx="0.063134536"
                 sodipodi:ry="0.50507629"
                 d="m -344.33576,601.45532 c 0,0.27895 -0.0283,0.50508 -0.0631,0.50508 -0.0349,0 -0.0631,-0.22613 -0.0631,-0.50508 0,-0.27894 0.0283,-0.50507 0.0631,-0.50507 0.0349,0 0.0631,0.22613 0.0631,0.50507 z"
                 transform="matrix(28.124999,0,0,5.8749996,9395.2947,-2924.1395)" />
              <path
                 sodipodi:type="arc"
                 style="fill:#000000;fill-opacity:1;fill-rule:nonzero;stroke:none"
                 id="path4651"
                 sodipodi:cx="-344.3989"
                 sodipodi:cy="601.45532"
                 sodipodi:rx="0.063134536"
                 sodipodi:ry="0.50507629"
                 d="m -344.33576,601.45532 c 0,0.27895 -0.0283,0.50508 -0.0631,0.50508 -0.0349,0 -0.0631,-0.22613 -0.0631,-0.50508 0,-0.27894 0.0283,-0.50507 0.0631,-0.50507 0.0349,0 0.0631,0.22613 0.0631,0.50507 z"
                 transform="matrix(28.124999,0,0,5.8749996,9395.1684,-2934.4935)" />
              <path
                 sodipodi:type="arc"
                 style="fill:#000000;fill-opacity:1;fill-rule:nonzero;stroke:none"
                 id="path4653"
                 sodipodi:cx="-344.3989"
                 sodipodi:cy="601.45532"
                 sodipodi:rx="0.063134536"
                 sodipodi:ry="0.50507629"
                 d="m -344.33576,601.45532 c 0,0.27895 -0.0283,0.50508 -0.0631,0.50508 -0.0349,0 -0.0631,-0.22613 -0.0631,-0.50508 0,-0.27894 0.0283,-0.50507 0.0631,-0.50507 0.0349,0 0.0631,0.22613 0.0631,0.50507 z"
                 transform="matrix(28.124999,0,0,5.8749996,9388.3499,-2930.0741)" />
              <path
                 sodipodi:type="arc"
                 style="fill:#000000;fill-opacity:1;fill-rule:nonzero;stroke:none"
                 id="path4655"
                 sodipodi:cx="-344.3989"
                 sodipodi:cy="601.45532"
                 sodipodi:rx="0.063134536"
                 sodipodi:ry="0.50507629"
                 d="m -344.33576,601.45532 c 0,0.27895 -0.0283,0.50508 -0.0631,0.50508 -0.0349,0 -0.0631,-0.22613 -0.0631,-0.50508 0,-0.27894 0.0283,-0.50507 0.0631,-0.50507 0.0349,0 0.0631,0.22613 0.0631,0.50507 z"
                 transform="matrix(1.8676572,28.062919,-5.8620318,0.3901328,3866.5549,10021.292)" />
            </g>
          </g>
        </g>
      </g>
      <g
         transform="matrix(4.4712461,0,0,4.4798867,18.383819,561.26801)"
         id="g3471">
        <path
           inkscape:connector-curvature="0"
           style="fill:#000000;fill-opacity:1"
           d="M 24.295394,26.863758 C 19.200505,21.145204 22.710131,11.190578 26.951762,7.3424212 30.566689,4.0628338 36.556731,1.3813774 37.121428,2.3183024 38.019154,3.8077781 34.48577,4.865211 31.829231,7.2558366 c -3.316285,3.5862374 -4.429869,5.1983654 0.158833,7.2214584 4.918582,2.219791 5.013045,4.39101 5.171088,7.153172 0.397878,6.953855 -7.89003,10.207018 -12.863758,5.233291 z"
           id="path1873"
           sodipodi:nodetypes="cssccsc" />
        <path
           inkscape:connector-curvature="0"
           style="fill:#000000;fill-opacity:1"
           d="M 5.1231491,26.764559 C 0.02826059,21.046005 3.5378861,11.091379 7.7795171,7.2432227 11.394445,3.9636353 17.384487,1.2821789 17.949184,2.2191039 18.84691,3.7085796 15.313526,4.7660125 12.656987,7.1566381 9.3407014,10.742875 8.2271171,12.355003 12.81582,14.378096 c 4.918582,2.219791 5.013045,4.39101 5.171088,7.153172 0.397878,6.953855 -7.89003,10.207018 -12.8637589,5.233291 z"
           id="path1875"
           sodipodi:nodetypes="cssccsc" />
      </g>
      <text
         transform="scale(1.0014703,0.99853185)"
         sodipodi:linespacing="125%"
         id="text4375"
         y="1004.6923"
         x="340.5954"
         style="font-size:77.31065369px;font-style:italic;font-variant:normal;font-weight:bold;font-stretch:normal;text-align:start;line-height:125%;letter-spacing:0px;word-spacing:0px;writing-mode:lr-tb;text-anchor:start;fill:#000000;fill-opacity:1;stroke:none;font-family:URW Chancery L;-inkscape-font-specification:URW Chancery L Bold Italic"
         xml:space="preserve"><tspan
           y="1004.6923"
           x="340.5954"
           id="tspan3132"
           sodipodi:role="line">-App</tspan></text>
    </g>
    <flowRoot
       xml:space="preserve"
       id="flowRoot4379"
       style="font-size:40px;font-style:normal;font-weight:normal;line-height:125%;letter-spacing:0px;word-spacing:0px;fill:#000000;fill-opacity:1;stroke:none;font-family:Sans"><flowRegion
         id="flowRegion4381"><rect
           id="rect4383"
           width="101.5625"
           height="40.625"
           x="-93.75"
           y="1213.2997" /></flowRegion><flowPara
         id="flowPara4385" /></flowRoot>  </g>
</svg>
